<?xml version="1.0" encoding="UTF-8" standalone="no"?>
<!-- Created with Inkscape (http://www.inkscape.org/) -->

<svg
   width="49.056152"
   height="48.620602"
   viewBox="0 0 12.979441 12.864201"
   version="1.1"
   id="svg5"
   inkscape:version="1.1.2 (0a00cf5, 2022-02-04)"
   sodipodi:docname="whatsapp.svg"
   xmlns:inkscape="http://www.inkscape.org/namespaces/inkscape"
   xmlns:sodipodi="http://sodipodi.sourceforge.net/DTD/sodipodi-0.dtd"
   xmlns="http://www.w3.org/2000/svg"
   xmlns:svg="http://www.w3.org/2000/svg">
  <sodipodi:namedview
     id="namedview7"
     pagecolor="#ffffff"
     bordercolor="#666666"
     borderopacity="1.0"
     inkscape:pageshadow="2"
     inkscape:pageopacity="0.0"
     inkscape:pagecheckerboard="0"
     inkscape:document-units="mm"
     showgrid="false"
     units="px"
     inkscape:zoom="8.7166667"
     inkscape:cx="29.483748"
     inkscape:cy="29.311663"
     inkscape:window-width="1366"
     inkscape:window-height="715"
     inkscape:window-x="0"
     inkscape:window-y="24"
     inkscape:window-maximized="1"
     inkscape:current-layer="layer1" />
  <defs
     id="defs2" />
  <g
     inkscape:label="Camada 1"
     inkscape:groupmode="layer"
     id="layer1"
     transform="translate(-117.15456,-98.674989)">
    <path
       d="m 126.74964,106.36529 c -0.15974,-0.0861 -0.94428,-0.50245 -1.09151,-0.5613 -0.14707,-0.0587 -0.25442,-0.0893 -0.36912,0.0668 -0.11454,0.15572 -0.44007,0.50457 -0.53868,0.60785 -0.0991,0.10333 -0.19439,0.11292 -0.35425,0.0266 -0.15934,-0.0857 -0.6771,-0.27409 -1.27761,-0.84178 -0.46727,-0.44178 -0.7737,-0.97745 -0.86263,-1.14095 -0.089,-0.16368 -4.8e-4,-0.24707 0.0838,-0.32365 0.0759,-0.0691 0.16985,-0.18108 0.25474,-0.27133 0.0846,-0.0903 0.11454,-0.15595 0.17278,-0.26074 0.0582,-0.10477 0.0348,-0.19917 -0.003,-0.28069 -0.0376,-0.0813 -0.33298,-0.88063 -0.45633,-1.20578 -0.12329,-0.32514 -0.26072,-0.27676 -0.35566,-0.28041 -0.0948,-0.003 -0.20278,-0.0208 -0.3113,-0.0246 -0.10842,-0.004 -0.28626,0.0296 -0.44131,0.18402 -0.15513,0.15451 -0.59008,0.52597 -0.62004,1.31325 -0.03,0.7868 0.52379,1.56891 0.60102,1.67842 0.0773,0.10981 1.05741,1.81586 2.68626,2.51748 1.62925,0.70139 1.63776,0.48752 1.93666,0.47178 0.2991,-0.0155 0.97701,-0.35171 1.12693,-0.71993 0.14977,-0.36838 0.16178,-0.68861 0.12372,-0.75679 -0.0381,-0.0682 -0.1449,-0.11245 -0.30458,-0.19825 z m -2.98765,3.79271 c -1.0772,0 -2.08051,-0.31778 -2.9182,-0.86243 l -2.03841,0.6417 0.66254,-1.93716 c -0.63496,-0.86023 -1.01009,-1.91683 -1.01009,-3.05861 0,-2.87666 2.37954,-5.216915 5.30416,-5.216915 2.92513,0 5.30454,2.340255 5.30454,5.216915 0,2.8764 -2.37941,5.2165 -5.30454,5.2165 z m 0,-11.483011 c -3.51885,0 -6.37162,2.805461 -6.37162,6.266511 0,1.18385 0.33407,2.29115 0.91425,3.23576 l -1.15006,3.36193 3.52776,-1.11066 c 0.91295,0.49629 1.96267,0.77941 3.07967,0.77941 3.51942,0 6.37201,-2.80579 6.37201,-6.26644 0,-3.46105 -2.85259,-6.266511 -6.37201,-6.266511"
       style="fill:#211c1d;fill-opacity:1;fill-rule:evenodd;stroke:none;stroke-width:0.0072171"
       id="path19" />
  </g>
</svg>
