<svg height="48.620602" viewBox="0 0 12.979441 12.864201" width="49.056152" xmlns="http://www.w3.org/2000/svg"><path d="m126.74964 106.36529c-.15974-.0861-.94428-.50245-1.09151-.5613-.14707-.0587-.25442-.0893-.36912.0668-.11454.15572-.44007.50457-.53868.60785-.0991.10333-.19439.11292-.35425.0266-.15934-.0857-.6771-.27409-1.27761-.84178-.46727-.44178-.7737-.97745-.86263-1.14095-.089-.16368-.00048-.24707.0838-.32365.0759-.0691.16985-.18108.25474-.27133.0846-.0903.11454-.15595.17278-.26074.0582-.10477.0348-.19917-.003-.28069-.0376-.0813-.33298-.88063-.45633-1.20578-.12329-.32514-.26072-.27676-.35566-.28041-.0948-.003-.20278-.0208-.3113-.0246-.10842-.004-.28626.0296-.44131.18402-.15513.15451-.59008.52597-.62004 1.31325-.03.7868.52379 1.56891.60102 1.67842.0773.10981 1.05741 1.81586 2.68626 2.51748 1.62925.70139 1.63776.48752 1.93666.47178.2991-.0155.97701-.35171 1.12693-.71993.14977-.36838.16178-.68861.12372-.75679-.0381-.0682-.1449-.11245-.30458-.19825zm-2.98765 3.79271c-1.0772 0-2.08051-.31778-2.9182-.86243l-2.03841.6417.66254-1.93716c-.63496-.86023-1.01009-1.91683-1.01009-3.05861 0-2.87666 2.37954-5.216915 5.30416-5.216915 2.92513 0 5.30454 2.340255 5.30454 5.216915 0 2.8764-2.37941 5.2165-5.30454 5.2165zm0-11.483011c-3.51885 0-6.37162 2.805461-6.37162 6.266511 0 1.18385.33407 2.29115.91425 3.23576l-1.15006 3.36193 3.52776-1.11066c.91295.49629 1.96267.77941 3.07967.77941 3.51942 0 6.37201-2.80579 6.37201-6.26644 0-3.46105-2.85259-6.266511-6.37201-6.266511" fill="#211c1d" fill-rule="evenodd" transform="translate(-117.15456 -98.674989)"/></svg>