<?xml version="1.0" encoding="UTF-8" standalone="no"?>
<!-- Created with Inkscape (http://www.inkscape.org/) -->

<svg
   width="62.91721mm"
   height="63.407928mm"
   viewBox="0 0 62.91721 63.407928"
   version="1.1"
   id="svg5"
   inkscape:version="1.1.2 (0a00cf5, 2022-02-04)"
   sodipodi:docname="whatsapp.svg"
   xmlns:inkscape="http://www.inkscape.org/namespaces/inkscape"
   xmlns:sodipodi="http://sodipodi.sourceforge.net/DTD/sodipodi-0.dtd"
   xmlns="http://www.w3.org/2000/svg"
   xmlns:svg="http://www.w3.org/2000/svg">
  <sodipodi:namedview
     id="namedview7"
     pagecolor="#ffffff"
     bordercolor="#666666"
     borderopacity="1.0"
     inkscape:pageshadow="2"
     inkscape:pageopacity="0.0"
     inkscape:pagecheckerboard="0"
     inkscape:document-units="mm"
     showgrid="false"
     inkscape:zoom="2.1823309"
     inkscape:cx="118.68044"
     inkscape:cy="119.82601"
     inkscape:window-width="1366"
     inkscape:window-height="715"
     inkscape:window-x="0"
     inkscape:window-y="24"
     inkscape:window-maximized="1"
     inkscape:current-layer="layer1" />
  <defs
     id="defs2" />
  <g
     inkscape:label="Camada 1"
     inkscape:groupmode="layer"
     id="layer1"
     transform="translate(-128.87835,-86.665603)">
    <path
       d="m 175.38998,124.57129 c -0.77434,-0.42418 -4.57729,-2.47664 -5.29096,-2.76669 -0.71296,-0.28939 -1.23331,-0.4403 -1.78929,0.32935 -0.55527,0.76757 -2.13324,2.48708 -2.61126,2.99611 -0.48048,0.50934 -0.94227,0.55661 -1.71721,0.13148 -0.77241,-0.42252 -3.28221,-1.35103 -6.19319,-4.14913 -2.26508,-2.17759 -3.75045,-4.81792 -4.18151,-5.62377 -0.4312,-0.80684 -0.003,-1.21782 0.4064,-1.5953 0.36763,-0.34078 0.82334,-0.89252 1.23482,-1.33738 0.41025,-0.4452 0.55524,-0.7687 0.8376,-1.28517 0.28208,-0.51646 0.16853,-0.98178 -0.0144,-1.38359 -0.1827,-0.40076 -1.61406,-4.34058 -2.21202,-5.94325 -0.59764,-1.60267 -1.26379,-1.36419 -1.72406,-1.38218 -0.45984,-0.0159 -0.98294,-0.10266 -1.50893,-0.12171 -0.52561,-0.0201 -1.38769,0.1457 -2.13928,0.90699 -0.75198,0.76165 -2.8604,2.59257 -3.00563,6.47312 -0.1451,3.87809 2.53904,7.73317 2.91345,8.27296 0.37454,0.54127 5.12575,8.95036 13.02148,12.40868 7.89771,3.45722 7.93898,2.40301 9.38784,2.32543 1.44992,-0.0762 4.73604,-1.73358 5.46277,-3.54859 0.72601,-1.81571 0.78422,-3.39411 0.59972,-3.7302 -0.18521,-0.33584 -0.70238,-0.55425 -1.47638,-0.97716 z m -14.48244,18.69433 c -5.22168,0 -10.08518,-1.5663 -14.14583,-4.25097 l -9.88109,3.163 3.21165,-9.54828 c -3.07798,-4.2401 -4.89644,-9.44813 -4.89644,-15.07603 0,-14.17912 11.53473,-25.714251 25.71171,-25.714251 14.17941,0 25.71348,11.535131 25.71348,25.714251 0,14.17783 -11.53407,25.71228 -25.71348,25.71228 z m 0,-56.600017 c -17.05748,0 -30.88611,13.828187 -30.88611,30.887737 0,5.8353 1.61934,11.29316 4.43176,15.94915 l -5.57484,16.57104 17.10062,-5.47441 c 4.42546,2.44617 9.51399,3.8417 14.92857,3.8417 17.06019,0 30.88802,-13.82986 30.88802,-30.88748 0,-17.05955 -13.82783,-30.887737 -30.88802,-30.887737"
       style="fill:#211c1d;fill-opacity:1;fill-rule:evenodd;stroke:none;stroke-width:0.0352777"
       id="path19" />
  </g>
</svg>
