<?xml version="1.0" standalone="no"?>
<!DOCTYPE svg PUBLIC "-//W3C//DTD SVG 20010904//EN"
 "http://www.w3.org/TR/2001/REC-SVG-20010904/DTD/svg10.dtd">
<svg version="1.0" xmlns="http://www.w3.org/2000/svg"
 width="1280.000000pt" height="831.000000pt" viewBox="0 0 1280.000000 831.000000"
 preserveAspectRatio="xMidYMid meet">
<metadata>
Created by potrace 1.15, written by Peter Selinger 2001-2017
</metadata>
<g transform="translate(0.000000,831.000000) scale(0.100000,-0.100000)"
fill="#000000" stroke="none">
<path d="M130 8288 c-52 -27 -91 -80 -115 -156 -13 -40 -16 -80 -13 -170 3
-111 5 -120 38 -180 42 -80 85 -113 149 -120 97 -9 162 32 207 130 24 54 29
79 32 169 5 122 -9 186 -58 262 -52 83 -151 109 -240 65z m149 -107 c37 -40
51 -93 51 -197 0 -108 -13 -159 -50 -196 -53 -53 -126 -32 -161 46 -27 59 -27
243 0 302 36 78 110 99 160 45z"/>
<path d="M725 8278 c-60 -16 -116 -34 -122 -40 -19 -15 -16 -52 6 -72 17 -16
23 -16 79 -2 33 9 63 16 66 16 4 0 5 -91 4 -202 l-3 -203 -73 -5 c-76 -5 -95
-16 -90 -55 5 -37 44 -45 213 -45 171 0 208 8 213 47 6 38 -23 53 -99 53 l-69
0 0 270 c0 149 -3 269 -7 269 -5 -1 -57 -15 -118 -31z"/>
<path d="M1315 8278 c-60 -17 -116 -35 -122 -40 -19 -15 -16 -52 6 -72 19 -17
32 -16 124 10 16 5 17 -9 17 -200 l0 -206 -69 0 c-75 0 -95 -12 -89 -52 6 -42
39 -49 226 -46 159 3 175 5 188 22 35 49 4 76 -87 76 l-69 0 0 270 c0 149 -3
270 -7 269 -5 -1 -57 -14 -118 -31z"/>
<path d="M1901 8277 c-119 -34 -138 -47 -128 -89 11 -41 32 -43 140 -12 16 5
17 -9 17 -200 l0 -206 -69 0 c-75 0 -95 -12 -89 -52 5 -40 41 -48 210 -48 167
0 202 7 213 40 13 40 -19 60 -97 60 l-68 0 0 270 c0 149 -3 270 -7 269 -5 0
-59 -15 -122 -32z"/>
<path d="M2500 8299 c-38 -15 -79 -58 -108 -114 -26 -48 -27 -57 -27 -200 0
-143 1 -152 27 -200 46 -87 100 -125 179 -125 57 0 100 21 142 70 55 65 72
124 71 260 0 104 -3 121 -28 175 -32 70 -68 112 -113 131 -37 16 -107 17 -143
3z m136 -116 c39 -42 57 -122 52 -227 -7 -132 -46 -196 -119 -196 -43 0 -82
33 -101 88 -16 48 -16 226 0 274 29 83 118 115 168 61z"/>
<path d="M3090 8299 c-41 -17 -81 -61 -111 -124 -27 -57 -29 -67 -29 -190 0
-123 2 -133 29 -190 45 -95 99 -135 181 -135 82 0 136 40 181 135 27 57 29 67
29 190 0 123 -2 133 -29 190 -31 65 -70 108 -114 124 -35 13 -103 13 -137 0z
m133 -115 c37 -37 51 -87 52 -189 0 -117 -9 -158 -47 -200 -25 -29 -37 -35
-70 -35 -80 0 -124 96 -116 255 5 96 14 123 56 168 35 37 89 37 125 1z"/>
<path d="M3675 8279 c-115 -30 -148 -51 -138 -89 9 -34 35 -41 97 -25 31 8 59
15 61 15 3 0 5 -92 5 -205 l0 -205 -68 0 c-75 0 -92 -9 -92 -52 0 -42 28 -48
210 -48 182 0 210 6 210 48 0 43 -17 52 -92 52 l-68 0 0 270 c0 149 -3 270 -7
269 -5 0 -57 -14 -118 -30z"/>
<path d="M4253 8289 c-77 -38 -122 -132 -130 -274 -12 -208 77 -355 215 -355
88 0 153 53 191 155 29 78 30 260 1 337 -51 138 -164 193 -277 137z m135 -95
c47 -33 62 -84 62 -210 0 -127 -12 -168 -58 -204 -27 -22 -72 -26 -103 -10
-10 6 -29 30 -41 53 -20 37 -23 57 -23 162 0 105 3 125 22 162 13 23 31 47 40
52 27 15 76 13 101 -5z"/>
<path d="M4860 8280 c-130 -34 -138 -37 -145 -61 -7 -21 8 -54 29 -62 8 -3 38
1 68 9 29 7 56 14 61 14 4 0 7 -92 7 -205 l0 -205 -68 0 c-78 0 -110 -20 -97
-60 11 -33 46 -40 213 -40 169 0 205 8 210 48 6 40 -14 52 -89 52 l-69 0 0
270 c0 149 -3 270 -7 269 -5 0 -55 -13 -113 -29z"/>
<path d="M5450 8280 c-130 -34 -138 -37 -145 -61 -7 -21 8 -54 29 -62 8 -3 38
1 68 9 29 7 56 14 61 14 4 0 7 -92 7 -205 l0 -205 -69 0 c-91 0 -122 -27 -87
-76 13 -17 29 -19 188 -22 187 -3 220 4 226 46 6 40 -14 52 -89 52 l-69 0 0
270 c0 149 -3 270 -7 269 -5 0 -55 -13 -113 -29z"/>
<path d="M6025 8278 c-60 -17 -116 -34 -122 -40 -21 -17 -15 -56 10 -72 20
-14 29 -14 77 -1 30 8 58 15 63 15 4 0 7 -92 7 -205 l0 -205 -69 0 c-76 0
-105 -15 -99 -53 5 -39 42 -47 213 -47 173 0 208 8 213 49 5 35 -12 46 -89 51
l-70 5 -2 264 c-1 167 -6 265 -12 266 -5 1 -59 -11 -120 -27z"/>
<path d="M6610 8288 c-52 -27 -91 -80 -115 -156 -13 -40 -16 -80 -13 -170 3
-111 5 -120 38 -180 42 -80 85 -113 149 -120 97 -9 162 32 207 130 24 54 29
79 32 169 5 122 -9 186 -58 262 -52 83 -151 109 -240 65z m149 -107 c37 -40
51 -93 51 -197 0 -108 -12 -153 -49 -193 -53 -56 -126 -37 -162 43 -14 32 -19
65 -19 151 0 86 5 119 19 151 36 78 110 99 160 45z"/>
<path d="M7197 8289 c-85 -45 -127 -145 -127 -304 0 -114 16 -179 58 -239 42
-60 74 -79 139 -84 112 -7 195 70 224 207 15 74 7 234 -15 286 -57 135 -172
191 -279 134z m152 -108 c37 -40 51 -93 51 -196 0 -48 -5 -105 -12 -127 -36
-119 -149 -133 -199 -24 -14 32 -19 65 -19 151 0 86 5 119 19 151 36 78 110
99 160 45z"/>
<path d="M7795 8278 c-60 -17 -116 -35 -122 -40 -19 -15 -16 -52 6 -72 19 -17
32 -16 124 10 16 5 17 -9 17 -200 l0 -206 -69 0 c-75 0 -95 -12 -89 -52 6 -42
39 -49 226 -46 159 3 175 5 188 22 35 49 4 76 -87 76 l-69 0 0 270 c0 149 -3
270 -7 269 -5 -1 -57 -14 -118 -31z"/>
<path d="M8381 8277 c-119 -34 -138 -47 -128 -89 11 -41 32 -43 140 -12 16 5
17 -9 17 -200 l0 -206 -69 0 c-75 0 -95 -12 -89 -52 5 -40 41 -48 210 -48 167
0 202 7 213 40 13 40 -19 60 -97 60 l-68 0 0 270 c0 149 -3 270 -7 269 -5 0
-59 -15 -122 -32z"/>
<path d="M8971 8277 c-119 -34 -138 -47 -128 -89 11 -41 32 -43 140 -12 16 5
17 -9 17 -200 l0 -206 -68 0 c-73 0 -92 -10 -92 -46 0 -46 31 -54 207 -54 89
0 173 4 186 9 30 12 39 43 20 70 -12 18 -25 21 -84 21 l-69 0 0 270 c0 149 -3
270 -7 269 -5 0 -59 -15 -122 -32z"/>
<path d="M9565 8279 c-60 -17 -115 -35 -122 -41 -7 -6 -13 -23 -13 -39 0 -43
29 -54 94 -35 30 9 57 16 60 16 3 0 6 -92 6 -205 l0 -205 -68 0 c-75 0 -92 -9
-92 -52 0 -42 28 -48 210 -48 182 0 210 6 210 48 0 43 -17 52 -92 52 l-68 0 0
270 c0 149 -3 270 -7 269 -5 0 -57 -14 -118 -30z"/>
<path d="M10143 8289 c-45 -22 -90 -83 -114 -154 -18 -53 -18 -247 0 -300 35
-107 112 -175 199 -175 80 0 134 37 180 125 24 45 27 63 30 180 3 113 1 137
-17 185 -52 140 -164 196 -278 139z m144 -101 c45 -49 53 -81 53 -203 0 -128
-11 -169 -55 -203 -30 -24 -74 -28 -106 -12 -10 6 -29 30 -41 53 -20 37 -23
57 -23 162 0 127 9 160 57 205 30 28 88 27 115 -2z"/>
<path d="M10800 8294 c-192 -50 -216 -65 -191 -112 15 -29 34 -32 93 -16 29 7
56 14 61 14 4 0 7 -92 7 -205 l0 -205 -70 0 c-62 0 -71 -3 -85 -24 -19 -28
-10 -54 22 -67 13 -5 95 -9 181 -9 169 0 205 8 210 48 6 40 -14 52 -89 52
l-69 0 0 270 c0 149 -3 270 -7 269 -5 0 -33 -7 -63 -15z"/>
<path d="M11320 8288 c-55 -28 -103 -103 -121 -187 -17 -82 -7 -235 19 -293
49 -111 114 -155 212 -146 66 7 115 46 155 123 27 54 30 69 34 176 2 91 -1
131 -14 171 -48 152 -165 216 -285 156z m139 -94 c44 -31 61 -88 61 -209 0
-86 -5 -119 -19 -151 -36 -78 -110 -99 -160 -45 -37 40 -51 93 -51 196 0 103
14 156 51 196 31 34 80 39 118 13z"/>
<path d="M11930 8280 c-130 -34 -138 -37 -145 -61 -7 -21 8 -54 29 -62 8 -3
38 1 68 9 29 7 56 14 61 14 4 0 7 -92 7 -205 l0 -205 -69 0 c-91 0 -122 -27
-87 -76 13 -17 29 -19 188 -22 187 -3 220 4 226 46 6 40 -14 52 -89 52 l-69 0
0 270 c0 149 -3 270 -7 269 -5 0 -55 -13 -113 -29z"/>
<path d="M12505 8278 c-60 -17 -116 -34 -122 -40 -21 -17 -15 -56 10 -72 20
-14 29 -14 77 -1 30 8 58 15 63 15 4 0 7 -92 7 -205 l0 -205 -69 0 c-76 0
-105 -15 -99 -53 5 -39 42 -47 213 -47 173 0 208 8 213 49 5 36 -12 46 -91 51
l-72 5 -2 265 c-2 146 -6 265 -10 266 -5 1 -57 -12 -118 -28z"/>
<path d="M132 7001 c-119 -32 -141 -47 -126 -88 11 -31 36 -34 122 -18 l42 8
0 -202 0 -201 -57 0 c-32 0 -69 -6 -83 -13 -30 -15 -37 -48 -15 -71 24 -24
376 -24 400 0 22 23 15 56 -15 71 -14 7 -51 13 -82 13 l-58 0 0 265 c0 206 -3
265 -12 264 -7 0 -59 -13 -116 -28z"/>
<path d="M715 7011 c-86 -53 -118 -127 -123 -283 -5 -131 7 -183 58 -259 88
-134 261 -109 336 49 35 74 46 237 21 323 -21 71 -68 144 -109 169 -44 27
-141 27 -183 1z m157 -111 c38 -41 51 -99 46 -215 -2 -77 -8 -108 -23 -134
-50 -85 -123 -93 -173 -19 -25 39 -27 50 -30 165 -3 111 -1 128 19 169 37 78
107 92 161 34z"/>
<path d="M1294 7005 c-29 -17 -51 -42 -75 -87 l-34 -63 0 -145 0 -145 35 -64
c52 -97 129 -135 222 -110 55 14 119 80 143 145 22 64 31 213 16 285 -15 70
-65 156 -110 186 -49 33 -141 32 -197 -2z m164 -98 c32 -30 52 -107 52 -201 0
-104 -14 -152 -56 -194 -30 -30 -39 -34 -70 -29 -78 13 -103 68 -104 226 0 97
3 122 21 159 35 71 104 89 157 39z"/>
<path d="M1892 7013 c-39 -19 -83 -80 -106 -146 -20 -60 -22 -244 -2 -309 18
-61 70 -134 109 -155 41 -21 132 -21 172 -1 44 23 70 55 102 123 26 56 28 69
28 185 0 108 -3 132 -23 174 -32 70 -69 116 -108 132 -45 19 -131 17 -172 -3z
m160 -114 c33 -39 48 -98 48 -192 0 -141 -43 -222 -119 -222 -81 0 -111 62
-111 225 0 138 18 191 72 215 43 19 77 11 110 -26z"/>
<path d="M2483 7000 c-55 -15 -106 -31 -112 -34 -16 -10 -13 -62 4 -76 15 -12
34 -11 113 6 l32 7 0 -202 0 -201 -58 0 c-66 0 -102 -19 -102 -54 0 -43 14
-46 212 -46 186 0 188 0 203 24 31 47 -6 76 -101 76 l-54 0 0 265 c0 246 -1
265 -17 264 -10 -1 -64 -14 -120 -29z"/>
<path d="M3073 7000 c-56 -16 -107 -31 -112 -35 -16 -9 -13 -61 4 -75 15 -12
34 -11 113 6 l32 7 0 -202 0 -201 -54 0 c-78 0 -106 -13 -106 -48 0 -50 9 -52
210 -52 201 0 210 2 210 52 0 35 -28 48 -106 48 l-54 0 0 265 c0 246 -1 265
-17 264 -10 0 -64 -14 -120 -29z"/>
<path d="M3655 7011 c-44 -27 -71 -60 -97 -116 -20 -44 -23 -65 -23 -180 0
-152 15 -203 77 -271 97 -106 253 -67 319 79 21 46 24 67 24 187 0 129 -1 138
-28 190 -52 100 -94 130 -184 130 -39 0 -68 -6 -88 -19z m157 -111 c36 -39 48
-88 48 -200 0 -107 -18 -161 -65 -198 -47 -37 -101 -23 -138 37 -18 30 -22 54
-26 144 -4 125 9 184 48 220 48 45 89 44 133 -3z"/>
<path d="M4240 7009 c-42 -24 -74 -68 -101 -138 -27 -73 -27 -249 1 -322 38
-102 86 -149 162 -163 98 -18 191 52 227 170 25 80 28 217 6 290 -19 66 -68
140 -107 164 -45 28 -140 27 -188 -1z m162 -109 c38 -41 51 -99 46 -215 -2
-77 -8 -108 -23 -134 -50 -85 -123 -93 -173 -19 -25 39 -27 50 -30 165 -3 111
-1 128 19 169 37 78 107 92 161 34z"/>
<path d="M4836 6999 c-112 -30 -126 -38 -126 -75 0 -45 25 -50 128 -28 l32 7
0 -202 0 -201 -58 0 c-67 0 -102 -19 -102 -55 0 -14 8 -29 19 -35 12 -6 94
-10 199 -10 164 0 180 2 196 19 23 25 13 59 -21 72 -13 5 -49 9 -79 9 l-54 0
0 265 c0 206 -3 265 -12 264 -7 0 -62 -14 -122 -30z"/>
<path d="M5422 7013 c-39 -19 -83 -80 -106 -146 -21 -63 -22 -257 -1 -316 21
-60 71 -128 108 -148 41 -21 132 -21 172 -1 44 23 70 55 102 123 26 56 28 69
28 185 0 108 -3 132 -23 174 -32 70 -69 116 -108 132 -45 19 -131 17 -172 -3z
m160 -114 c33 -39 48 -98 48 -192 0 -141 -43 -222 -119 -222 -81 0 -111 62
-111 225 0 138 18 191 72 215 43 19 77 11 110 -26z"/>
<path d="M6013 7000 c-55 -15 -106 -31 -112 -34 -16 -10 -13 -62 4 -76 15 -12
34 -11 113 6 l32 7 0 -202 0 -201 -58 0 c-66 0 -102 -19 -102 -54 0 -43 14
-46 211 -46 178 0 189 1 202 21 34 48 -5 79 -99 79 l-54 0 0 265 c0 246 -1
265 -17 264 -10 -1 -64 -14 -120 -29z"/>
<path d="M6600 7012 c-41 -22 -95 -96 -112 -155 -6 -23 -12 -89 -12 -147 0
-122 12 -170 57 -236 43 -64 85 -87 156 -87 94 0 151 45 192 153 24 64 27 264
4 329 -22 62 -70 126 -109 145 -46 22 -132 21 -176 -2z m149 -96 c36 -29 51
-88 51 -211 0 -106 -3 -125 -23 -160 -57 -101 -162 -74 -196 50 -14 52 -14
179 0 230 14 49 44 94 73 105 24 10 74 3 95 -14z"/>
<path d="M7230 7010 c-36 -10 -84 -23 -107 -29 -54 -15 -71 -42 -48 -78 18
-27 31 -27 123 -8 l32 8 0 -202 0 -201 -54 0 c-78 0 -106 -13 -106 -48 0 -50
9 -52 210 -52 201 0 210 2 210 52 0 35 -28 48 -106 48 l-54 0 0 265 c0 302 11
276 -100 245z"/>
<path d="M7775 7011 c-43 -26 -60 -48 -92 -116 -26 -56 -28 -69 -28 -185 0
-117 2 -129 29 -188 51 -110 129 -155 228 -132 59 15 103 55 139 126 22 45 24
61 24 194 0 133 -2 149 -24 190 -28 54 -66 97 -103 116 -40 21 -136 18 -173
-5z m129 -85 c56 -23 76 -80 76 -217 0 -133 -18 -187 -69 -213 -45 -24 -69
-20 -106 17 -42 42 -55 90 -55 202 1 123 28 192 85 216 28 11 31 11 69 -5z"/>
<path d="M8364 7011 c-79 -48 -124 -158 -124 -300 0 -221 111 -358 258 -321
65 16 94 41 133 112 32 59 34 70 37 179 3 86 0 131 -12 171 -19 65 -64 131
-109 158 -44 27 -140 27 -183 1z m130 -85 c53 -22 70 -70 74 -209 3 -104 1
-122 -18 -162 -45 -94 -131 -99 -181 -11 -19 34 -24 59 -27 141 -6 141 21 221
82 245 29 12 32 12 70 -4z"/>
<path d="M8962 7001 c-119 -32 -141 -47 -126 -88 8 -25 15 -28 49 -27 22 1 57
5 78 9 l37 8 0 -201 0 -200 -71 -4 c-55 -3 -74 -8 -85 -23 -18 -24 -18 -40 2
-59 13 -13 45 -16 195 -16 105 0 188 4 200 10 11 6 19 21 19 35 0 36 -35 55
-102 55 l-58 0 0 265 c0 246 -1 265 -17 264 -10 0 -64 -13 -121 -28z"/>
<path d="M9545 7011 c-44 -27 -71 -60 -97 -116 -20 -44 -23 -65 -23 -185 0
-153 12 -193 79 -268 94 -104 252 -64 317 81 21 46 24 66 24 187 0 128 -1 138
-28 190 -52 100 -94 130 -184 130 -39 0 -68 -6 -88 -19z m149 -99 c40 -36 56
-91 56 -202 0 -81 -5 -114 -19 -146 -21 -45 -63 -84 -93 -84 -35 0 -75 29 -94
67 -23 46 -32 226 -15 284 29 95 106 133 165 81z"/>
<path d="M10142 7001 c-119 -32 -141 -47 -126 -88 11 -31 36 -34 122 -18 l42
8 0 -202 0 -201 -57 0 c-32 0 -69 -6 -83 -13 -30 -15 -37 -48 -15 -71 14 -14
44 -16 200 -16 156 0 186 2 200 16 22 23 15 56 -15 71 -14 7 -51 13 -82 13
l-58 0 0 265 c0 206 -3 265 -12 264 -7 0 -59 -13 -116 -28z"/>
<path d="M10714 7005 c-29 -17 -51 -42 -75 -87 l-34 -63 0 -145 0 -145 35 -64
c52 -97 129 -135 222 -110 55 14 119 80 143 145 22 64 31 213 16 285 -15 70
-65 156 -110 186 -49 33 -141 32 -197 -2z m163 -97 c39 -36 56 -108 51 -221
-2 -79 -8 -110 -23 -136 -50 -85 -123 -93 -173 -19 -25 39 -27 50 -30 165 -3
111 -1 128 19 169 35 73 103 91 156 42z"/>
<path d="M11316 6999 c-112 -30 -126 -38 -126 -75 0 -45 25 -50 128 -28 l32 7
0 -202 0 -201 -58 0 c-67 0 -102 -19 -102 -55 0 -14 8 -29 19 -35 12 -6 94
-10 199 -10 164 0 180 2 196 19 23 25 13 59 -21 72 -13 5 -49 9 -79 9 l-54 0
0 265 c0 206 -3 265 -12 264 -7 0 -62 -14 -122 -30z"/>
<path d="M11902 7014 c-42 -22 -78 -68 -103 -134 -24 -64 -27 -264 -4 -329 21
-60 71 -128 108 -148 41 -21 132 -21 172 -1 102 54 156 226 125 405 -13 79
-57 163 -103 197 -38 28 -148 34 -195 10z m146 -97 c77 -63 83 -336 9 -405
-51 -48 -116 -35 -154 33 -20 35 -23 54 -23 163 0 104 3 129 21 163 31 61 102
84 147 46z"/>
<path d="M12493 7000 c-55 -15 -106 -31 -112 -34 -16 -10 -13 -62 4 -76 15
-12 34 -11 113 6 l32 7 0 -201 0 -200 -71 -4 c-73 -4 -89 -13 -89 -54 0 -41
15 -44 212 -44 186 0 188 0 203 24 31 47 -6 76 -101 76 l-54 0 0 265 c0 246
-1 265 -17 264 -10 -1 -64 -14 -120 -29z"/>
<path d="M150 5729 c-57 -15 -115 -32 -127 -38 -29 -13 -30 -51 -3 -76 19 -17
23 -17 80 -2 33 10 62 17 65 17 3 0 5 -92 5 -205 l0 -205 -69 0 c-74 0 -101
-14 -101 -50 0 -42 34 -50 215 -50 180 0 215 8 215 48 0 37 -18 47 -92 52
l-73 5 -5 266 -5 266 -105 -28z"/>
<path d="M724 5741 c-88 -40 -134 -144 -134 -304 0 -122 17 -188 63 -249 41
-54 88 -78 152 -78 99 0 179 82 206 209 17 81 7 235 -18 292 -57 127 -162 178
-269 130z m127 -91 c40 -22 63 -88 67 -195 5 -117 -7 -171 -47 -214 -37 -40
-96 -43 -129 -8 -40 42 -52 90 -52 204 0 119 17 176 61 207 27 18 71 21 100 6z"/>
<path d="M1316 5726 c-125 -33 -144 -45 -133 -88 11 -41 32 -43 140 -12 16 5
17 -9 17 -200 l0 -206 -61 0 c-72 0 -99 -12 -99 -45 0 -48 29 -55 217 -55 160
0 175 2 193 20 46 46 10 80 -83 80 l-67 0 -2 268 -3 269 -119 -31z"/>
<path d="M1903 5741 c-49 -23 -95 -81 -118 -152 -13 -39 -16 -78 -13 -177 3
-113 6 -132 30 -177 46 -88 100 -125 182 -125 141 0 228 150 213 367 -15 213
-146 331 -294 264z m120 -92 c14 -6 35 -30 48 -53 22 -37 24 -53 24 -161 0
-105 -3 -125 -23 -162 -25 -49 -47 -63 -94 -63 -40 0 -74 28 -94 76 -21 49
-19 255 2 300 31 65 82 88 137 63z"/>
<path d="M2500 5727 c-63 -15 -120 -33 -127 -39 -20 -17 -16 -66 7 -78 19 -10
42 -7 123 16 16 5 17 -9 17 -200 l0 -206 -61 0 c-71 0 -99 -12 -99 -43 0 -50
8 -52 191 -55 95 -2 183 -1 195 2 36 9 49 42 29 72 -14 22 -22 24 -85 24 l-70
0 -2 268 -3 268 -115 -29z"/>
<path d="M3085 5728 c-60 -16 -116 -34 -122 -40 -21 -17 -16 -66 7 -78 19 -10
42 -7 123 16 16 5 17 -9 17 -200 l0 -206 -68 0 c-75 0 -92 -9 -92 -52 0 -42
28 -48 210 -48 182 0 210 6 210 48 0 43 -17 52 -92 52 l-68 0 0 270 c0 149 -3
269 -7 269 -5 -1 -57 -15 -118 -31z"/>
<path d="M3683 5749 c-43 -12 -108 -89 -130 -152 -22 -65 -25 -252 -4 -312 38
-112 108 -175 195 -175 84 0 138 36 184 125 24 45 27 64 30 177 3 99 0 138
-13 177 -44 133 -144 194 -262 160z m115 -105 c47 -32 62 -84 62 -208 0 -63
-5 -127 -11 -143 -18 -48 -59 -83 -97 -83 -47 0 -69 14 -94 63 -20 37 -23 57
-23 162 0 95 4 127 17 152 37 66 98 91 146 57z"/>
<path d="M4265 5728 c-143 -39 -167 -59 -127 -108 18 -22 22 -23 68 -11 27 6
57 14 67 17 16 5 17 -9 17 -200 l0 -206 -70 0 c-63 0 -71 -2 -85 -24 -20 -30
-7 -63 29 -72 12 -3 100 -4 195 -2 183 3 191 5 191 55 0 31 -28 43 -99 43
l-61 0 0 270 c0 149 -3 270 -7 269 -5 -1 -57 -14 -118 -31z"/>
<path d="M4846 5725 c-139 -38 -158 -55 -118 -105 18 -22 22 -23 68 -11 27 6
57 14 67 17 16 5 17 -9 17 -200 l0 -206 -69 0 c-61 0 -72 -3 -85 -22 -20 -29
-20 -34 4 -58 18 -18 33 -20 193 -20 188 0 217 7 217 55 0 33 -27 45 -99 45
l-61 0 0 270 c0 149 -3 270 -7 269 -5 0 -61 -15 -127 -34z"/>
<path d="M5429 5737 c-54 -28 -103 -104 -120 -185 -6 -31 -9 -99 -7 -152 3
-85 8 -105 36 -163 45 -90 85 -120 166 -125 75 -4 117 15 163 76 46 61 63 127
63 246 0 118 -8 152 -52 226 -57 94 -157 125 -249 77z m140 -93 c44 -31 61
-88 61 -207 0 -114 -12 -162 -52 -204 -32 -34 -91 -31 -128 5 -37 37 -50 88
-50 196 0 104 14 157 51 197 31 34 80 39 118 13z"/>
<path d="M6026 5725 c-65 -18 -122 -38 -127 -46 -14 -23 -10 -45 11 -64 19
-17 23 -17 80 -2 33 10 62 17 65 17 3 0 5 -92 5 -205 l0 -205 -69 0 c-74 0
-101 -14 -101 -50 0 -42 34 -50 215 -50 180 0 215 8 215 48 0 37 -18 47 -90
52 l-71 5 0 262 c0 144 -3 264 -7 267 -4 2 -60 -11 -126 -29z"/>
<path d="M6615 5741 c-51 -23 -67 -42 -102 -116 -24 -52 -28 -76 -31 -172 -5
-126 9 -189 56 -257 46 -67 74 -81 155 -81 60 0 78 4 105 24 73 52 112 155
112 296 0 106 -17 172 -60 237 -54 81 -149 109 -235 69z m144 -110 c37 -40 51
-93 51 -197 0 -108 -13 -159 -50 -196 -37 -36 -96 -39 -128 -5 -40 42 -52 90
-52 204 1 156 36 223 118 223 25 0 42 -8 61 -29z"/>
<path d="M7218 5729 c-59 -15 -117 -33 -128 -39 -26 -14 -26 -52 0 -75 19 -17
23 -17 77 -2 31 9 58 15 59 14 2 -2 4 -93 4 -202 l2 -200 -72 -5 c-72 -5 -90
-15 -90 -52 0 -40 35 -48 215 -48 181 0 215 8 215 50 0 36 -27 50 -101 50
l-69 0 -2 268 -3 269 -107 -28z"/>
<path d="M7793 5741 c-50 -23 -97 -85 -118 -154 -23 -77 -20 -253 5 -319 24
-66 73 -126 116 -144 51 -21 123 -17 169 9 50 28 100 108 116 186 15 71 6 221
-16 283 -46 129 -162 188 -272 139z m128 -91 c37 -20 62 -89 67 -184 8 -165
-33 -256 -115 -256 -43 0 -68 20 -97 77 -24 48 -22 243 3 299 30 66 88 92 142
64z"/>
<path d="M8386 5726 c-125 -33 -144 -45 -133 -88 11 -41 32 -43 140 -12 16 5
17 -9 17 -200 l0 -206 -61 0 c-72 0 -99 -12 -99 -45 0 -48 29 -55 217 -55 160
0 175 2 193 20 24 24 24 29 4 58 -13 19 -24 22 -84 22 l-70 0 -2 268 -3 269
-119 -31z"/>
<path d="M8980 5727 c-63 -15 -120 -33 -127 -39 -20 -17 -16 -66 7 -78 19 -10
42 -7 123 16 16 5 17 -9 17 -200 l0 -206 -61 0 c-71 0 -99 -12 -99 -43 0 -49
8 -52 182 -55 89 -2 177 -1 195 3 44 8 60 38 38 71 -14 22 -22 24 -85 24 l-70
0 -2 268 -3 268 -115 -29z"/>
<path d="M9576 5750 c-43 -13 -85 -58 -117 -125 -27 -56 -29 -68 -29 -186 0
-138 10 -183 57 -250 50 -70 148 -98 226 -65 44 18 98 83 120 143 20 55 24
252 7 315 -36 128 -151 201 -264 168z m123 -115 c16 -14 35 -42 42 -63 17 -48
17 -226 1 -274 -19 -53 -58 -88 -99 -88 -48 0 -69 14 -95 63 -20 37 -23 57
-23 162 0 131 10 164 61 204 36 28 76 26 113 -4z"/>
<path d="M10152 5726 c-117 -32 -144 -50 -135 -87 11 -41 40 -43 146 -13 16 5
17 -9 17 -200 l0 -206 -68 0 c-75 0 -92 -9 -92 -52 0 -42 28 -48 210 -48 182
0 210 6 210 48 0 43 -17 52 -92 52 l-68 0 0 270 c0 149 -3 269 -7 269 -5 -1
-59 -16 -121 -33z"/>
<path d="M10745 5728 c-143 -39 -167 -59 -127 -108 18 -22 22 -23 68 -11 27 6
57 14 67 17 16 5 17 -9 17 -200 l0 -206 -70 0 c-63 0 -71 -2 -85 -24 -20 -30
-7 -63 29 -72 12 -3 100 -4 195 -2 183 3 191 5 191 55 0 31 -28 43 -99 43
l-61 0 0 270 c0 149 -3 270 -7 269 -5 -1 -57 -14 -118 -31z"/>
<path d="M11348 5750 c-51 -15 -87 -50 -120 -118 -32 -65 -33 -70 -33 -197 0
-127 1 -132 33 -198 45 -90 85 -120 166 -125 75 -4 117 15 163 76 46 61 63
127 63 246 0 118 -8 152 -52 226 -50 83 -132 117 -220 90z m111 -106 c44 -31
61 -88 61 -207 0 -157 -34 -227 -113 -227 -47 0 -87 37 -105 98 -15 51 -15
203 0 255 25 82 99 121 157 81z"/>
<path d="M11916 5725 c-139 -38 -158 -55 -118 -105 18 -22 22 -23 68 -11 27 6
57 14 67 17 16 5 17 -9 17 -200 l0 -206 -68 0 c-54 0 -72 -4 -85 -18 -22 -24
-21 -38 3 -62 18 -18 33 -20 193 -20 188 0 217 7 217 55 0 33 -27 45 -99 45
l-61 0 0 264 c0 146 -3 267 -7 269 -5 3 -61 -10 -127 -28z"/>
<path d="M12506 5725 c-65 -18 -122 -38 -127 -46 -14 -23 -10 -45 11 -64 19
-17 23 -17 80 -2 33 10 62 17 65 17 3 0 5 -92 5 -205 l0 -205 -69 0 c-74 0
-101 -14 -101 -50 0 -42 34 -50 215 -50 180 0 215 8 215 48 0 37 -18 47 -92
52 l-73 5 -2 264 c-1 145 -4 265 -5 266 -2 2 -56 -12 -122 -30z"/>
<path d="M132 4450 c-114 -32 -132 -42 -132 -75 0 -46 31 -53 138 -30 l32 8 0
-200 0 -200 -71 -5 c-85 -6 -108 -23 -93 -65 l9 -28 200 0 200 0 9 28 c15 42
-8 59 -93 65 l-71 5 0 263 c0 205 -3 264 -12 263 -7 0 -59 -14 -116 -29z"/>
<path d="M722 4450 c-114 -32 -132 -42 -132 -75 0 -46 31 -53 137 -30 l32 7 0
-200 0 -199 -69 -5 c-76 -6 -100 -18 -100 -52 0 -43 14 -46 211 -46 157 0 190
3 203 16 19 19 20 35 3 58 -10 14 -32 20 -85 24 l-72 5 0 263 c0 205 -3 264
-12 263 -7 0 -59 -14 -116 -29z"/>
<path d="M1312 4450 c-114 -32 -132 -42 -132 -75 0 -45 46 -55 138 -29 l22 6
0 -199 0 -200 -65 -5 c-71 -6 -95 -19 -95 -52 0 -43 14 -46 211 -46 157 0 190
3 203 16 19 19 20 35 3 58 -10 14 -32 20 -85 24 l-72 5 0 263 c0 205 -3 264
-12 263 -7 0 -59 -13 -116 -29z"/>
<path d="M1884 4455 c-29 -17 -51 -42 -75 -87 -32 -61 -34 -68 -37 -190 -4
-139 4 -181 52 -257 46 -72 124 -103 205 -81 58 15 103 59 137 132 27 59 29
71 29 188 0 135 -12 178 -70 254 -53 69 -163 88 -241 41z m173 -114 c35 -52
46 -106 41 -211 -5 -103 -20 -144 -64 -179 -51 -40 -108 -21 -144 49 -17 32
-20 59 -20 155 0 123 10 165 50 205 17 17 31 20 68 18 40 -3 49 -8 69 -37z"/>
<path d="M2507 4455 c-131 -34 -147 -42 -147 -75 0 -51 28 -58 133 -34 l27 6
0 -201 0 -201 -52 0 c-64 0 -102 -18 -106 -48 -7 -49 6 -52 209 -52 180 0 188
1 203 21 19 27 7 61 -25 70 -13 4 -48 7 -76 8 l-53 1 0 265 c0 206 -3 265 -12
264 -7 0 -53 -11 -101 -24z"/>
<path d="M3067 4459 c-80 -42 -117 -135 -117 -298 0 -132 8 -168 50 -234 49
-77 126 -110 208 -87 55 14 97 52 130 114 24 47 27 63 30 187 4 147 -4 181
-61 267 -46 70 -159 94 -240 51z m150 -94 c36 -26 58 -100 58 -200 0 -120 -9
-158 -49 -200 -45 -47 -85 -48 -131 -2 -42 42 -59 120 -52 232 5 85 31 155 64
174 26 15 86 13 110 -4z"/>
<path d="M3667 4450 c-59 -16 -112 -32 -116 -35 -17 -10 -18 -44 -4 -65 16
-23 32 -24 121 -5 l32 8 0 -202 0 -201 -49 0 c-74 0 -111 -16 -111 -49 0 -49
10 -51 211 -51 201 0 214 3 207 52 -4 30 -42 48 -105 48 l-53 0 0 265 c0 206
-3 265 -12 264 -7 0 -62 -14 -121 -29z"/>
<path d="M4290 4459 c-41 -11 -92 -24 -112 -30 -46 -12 -62 -37 -48 -75 10
-25 13 -26 58 -20 26 3 59 9 75 12 l27 6 0 -201 0 -201 -52 -1 c-29 -1 -64 -4
-77 -8 -32 -9 -44 -43 -25 -70 15 -20 23 -21 203 -21 203 0 216 3 209 52 -4
30 -42 48 -105 48 l-53 0 0 265 c0 206 -3 265 -12 264 -7 0 -47 -10 -88 -20z"/>
<path d="M8367 4450 c-59 -16 -112 -32 -118 -35 -14 -10 -11 -61 6 -75 15 -12
47 -10 118 6 l27 6 0 -201 0 -201 -52 0 c-64 0 -102 -18 -106 -48 -7 -49 6
-52 209 -52 180 0 188 1 203 21 19 27 7 61 -25 70 -13 4 -48 7 -76 8 l-53 1 0
265 c0 206 -3 265 -12 264 -7 0 -62 -14 -121 -29z"/>
<path d="M8957 4450 c-59 -16 -112 -32 -118 -35 -14 -10 -11 -61 6 -75 15 -12
34 -11 113 6 l32 7 0 -202 0 -201 -52 0 c-64 0 -102 -18 -106 -48 -7 -49 6
-52 207 -52 201 0 211 2 211 51 0 33 -37 49 -111 49 l-49 0 0 265 c0 206 -3
265 -12 264 -7 0 -62 -14 -121 -29z"/>
<path d="M9547 4450 c-59 -16 -112 -32 -116 -35 -17 -10 -18 -44 -4 -65 16
-23 32 -24 121 -5 l32 8 0 -202 0 -201 -49 0 c-74 0 -111 -16 -111 -49 0 -49
10 -51 211 -51 201 0 214 3 207 52 -4 30 -42 48 -105 48 l-53 0 0 265 c0 206
-3 265 -12 264 -7 0 -62 -14 -121 -29z"/>
<path d="M10170 4459 c-41 -11 -92 -24 -112 -30 -46 -12 -62 -37 -48 -75 10
-25 13 -26 58 -20 26 3 59 9 75 12 l27 6 0 -201 0 -201 -44 0 c-103 0 -143
-27 -111 -76 l15 -24 189 0 c203 0 216 3 209 52 -4 30 -42 48 -105 48 l-53 0
0 265 c0 206 -3 265 -12 264 -7 0 -47 -10 -88 -20z"/>
<path d="M10725 4466 c-42 -19 -69 -51 -102 -121 -26 -56 -28 -68 -28 -190 0
-122 2 -134 28 -187 37 -75 92 -125 149 -133 94 -14 170 32 218 131 32 65 41
252 16 336 -19 65 -64 131 -109 158 -38 23 -126 26 -172 6z m143 -109 c40 -42
52 -90 52 -202 0 -143 -26 -206 -92 -220 -43 -10 -82 11 -109 58 -19 35 -24
60 -27 142 -5 114 7 170 44 215 21 25 33 30 68 30 31 0 48 -6 64 -23z"/>
<path d="M11311 4449 c-120 -32 -140 -46 -125 -86 8 -24 15 -28 49 -27 22 0
57 4 78 8 l37 8 0 -200 0 -199 -72 -5 c-53 -4 -75 -10 -85 -24 -17 -23 -16
-39 3 -58 13 -13 46 -16 203 -16 197 0 211 3 211 46 0 33 -24 46 -95 52 l-65
5 0 263 c0 245 -1 264 -17 263 -10 -1 -65 -14 -122 -30z"/>
<path d="M11901 4449 c-121 -33 -140 -46 -125 -86 8 -24 15 -28 49 -27 22 0
57 4 78 8 l37 8 0 -200 0 -199 -71 -5 c-85 -6 -108 -23 -93 -65 l9 -28 200 0
200 0 9 28 c15 42 -8 59 -93 65 l-71 5 0 263 c0 205 -3 264 -12 263 -7 0 -60
-14 -117 -30z"/>
<path d="M12485 4461 c-44 -27 -71 -60 -97 -116 -20 -44 -23 -65 -23 -185 0
-133 1 -136 33 -203 86 -175 277 -168 360 13 34 73 43 237 18 322 -21 73 -73
149 -116 170 -47 24 -136 24 -175 -1z m159 -111 c35 -42 46 -89 46 -201 0 -82
-4 -102 -25 -146 -44 -88 -122 -97 -173 -20 -25 37 -27 51 -30 151 -4 124 7
177 46 219 38 40 100 39 136 -3z"/>
<path d="M6015 4428 c-72 -26 -121 -74 -157 -155 -18 -38 -22 -67 -22 -143 0
-83 3 -101 26 -145 53 -101 134 -148 258 -149 41 0 94 6 118 12 53 16 122 76
122 106 0 53 -55 61 -106 17 -56 -50 -177 -54 -245 -8 -53 36 -71 68 -76 138
-12 148 57 239 179 239 69 0 115 -27 135 -80 17 -44 41 -57 73 -40 18 10 20
20 20 100 0 80 -2 90 -21 100 -15 9 -28 9 -48 0 -21 -8 -35 -7 -64 5 -42 17
-147 19 -192 3z"/>
<path d="M4688 4419 c-28 -16 -23 -67 7 -81 l25 -11 0 -187 0 -186 -32 -15
c-21 -9 -34 -22 -36 -37 -7 -44 12 -52 124 -52 102 0 105 0 116 26 15 33 2 55
-40 66 l-32 9 0 69 0 70 105 0 105 0 0 -69 c0 -67 -1 -69 -27 -76 -16 -4 -34
-11 -40 -17 -16 -13 -17 -50 -1 -66 15 -15 214 -17 223 -2 4 7 12 7 25 0 10
-5 64 -10 119 -10 77 0 103 4 115 16 30 30 11 69 -38 78 -34 6 -34 8 -24 36
l10 30 117 0 c116 0 118 0 129 -25 16 -35 17 -33 -23 -41 -50 -9 -70 -48 -39
-78 22 -23 216 -23 238 0 9 8 16 20 16 25 0 23 -22 49 -40 49 -27 0 -33 12
-135 263 l-90 222 -118 3 c-133 3 -157 -4 -157 -48 0 -36 23 -50 79 -50 27 0
41 -4 40 -12 -2 -30 -145 -362 -159 -368 -8 -4 -24 -11 -35 -17 -11 -6 -27 -7
-35 -2 -8 4 -23 10 -32 13 -16 5 -18 23 -18 192 l0 186 25 20 c59 47 16 88
-93 88 -89 0 -112 -10 -112 -50 0 -31 22 -50 59 -50 19 0 21 -6 21 -70 l0 -70
-105 0 -105 0 0 70 c0 67 1 70 24 70 52 0 74 56 34 84 -26 18 -162 22 -190 5z
m862 -216 c19 -48 37 -91 38 -95 2 -5 -33 -8 -78 -8 -45 0 -80 3 -78 8 2 4 19
47 38 95 19 48 37 87 40 87 3 0 21 -39 40 -87z"/>
<path d="M6428 4419 c-25 -14 -24 -65 1 -79 11 -5 29 -10 40 -10 20 0 21 -5
21 -189 l0 -189 -27 -7 c-38 -9 -53 -23 -53 -49 0 -40 18 -46 136 -46 89 0
116 3 128 16 33 32 11 71 -47 79 l-42 7 3 51 c4 56 31 97 63 97 35 0 88 -61
136 -156 l48 -94 62 0 c43 0 66 5 77 16 32 31 11 70 -42 79 -36 6 -41 11 -68
68 -16 33 -52 85 -81 114 l-51 53 79 70 c44 38 95 77 114 85 29 11 35 19 35
44 0 41 -23 51 -114 51 -63 0 -80 -4 -96 -20 -24 -24 -25 -38 -5 -60 14 -15 7
-23 -69 -88 -47 -40 -86 -72 -88 -72 -2 0 -2 31 0 70 l4 70 33 0 c24 0 39 7
49 22 20 29 20 34 -4 58 -17 17 -33 20 -122 20 -57 0 -111 -5 -120 -11z"/>
<path d="M7018 4419 c-25 -14 -24 -65 1 -79 11 -5 29 -10 40 -10 20 0 21 -5
21 -189 l0 -189 -27 -7 c-38 -9 -53 -23 -53 -49 0 -44 10 -46 278 -46 l254 0
-4 89 c-4 95 -16 121 -52 121 -33 0 -46 -19 -46 -67 l0 -43 -125 0 -125 0 0
70 0 70 38 0 c34 0 39 -3 47 -32 8 -26 16 -34 38 -36 49 -6 57 11 57 114 0 72
-4 96 -16 109 -25 24 -57 15 -74 -22 -13 -28 -20 -33 -52 -33 l-38 0 0 70 0
71 113 -3 112 -3 3 -45 c4 -63 41 -89 76 -54 12 12 16 37 16 110 l0 94 -232 0
c-140 0 -240 -5 -250 -11z"/>
<path d="M7608 4420 c-11 -7 -18 -23 -18 -41 0 -25 6 -33 30 -42 l30 -12 -2
-189 -3 -190 -24 -6 c-32 -7 -44 -41 -24 -69 15 -22 20 -22 182 -19 167 3 168
3 217 33 30 19 60 49 79 79 27 45 30 58 33 152 4 116 -9 161 -68 228 -62 70
-95 80 -265 84 -94 1 -157 -2 -167 -8z m299 -101 c73 -27 106 -87 106 -189 0
-138 -43 -180 -185 -180 l-88 0 0 190 0 190 69 0 c38 0 82 -5 98 -11z"/>
<path d="M158 3201 c-52 -17 -87 -52 -120 -119 -30 -61 -33 -76 -37 -178 -4
-132 12 -200 62 -266 40 -53 88 -78 150 -78 89 0 147 43 190 140 28 64 36 245
13 323 -17 58 -63 127 -106 159 -29 21 -112 32 -152 19z m97 -101 c17 -7 34
-27 50 -62 21 -45 25 -68 25 -148 0 -111 -11 -158 -46 -200 -21 -25 -33 -30
-68 -30 -82 0 -116 67 -116 228 0 95 3 115 23 153 33 62 75 81 132 59z"/>
<path d="M747 3200 c-49 -15 -92 -56 -122 -116 -26 -53 -30 -71 -33 -175 -5
-135 10 -201 58 -267 43 -59 84 -82 148 -82 96 0 141 32 189 135 26 56 28 68
28 190 -1 111 -4 137 -22 177 -54 118 -145 168 -246 138z m98 -102 c46 -21 68
-80 73 -193 5 -114 -7 -170 -44 -215 -21 -25 -33 -30 -68 -30 -82 0 -116 67
-116 228 0 92 3 114 23 152 31 64 77 83 132 58z"/>
<path d="M1327 3195 c-52 -18 -82 -48 -115 -114 -24 -50 -27 -69 -30 -181 -3
-110 -1 -132 18 -184 25 -66 76 -128 120 -146 17 -7 55 -11 89 -8 80 6 123 39
165 127 30 63 31 72 31 191 0 116 -2 129 -28 186 -57 122 -144 167 -250 129z
m106 -96 c44 -20 71 -84 75 -183 8 -167 -33 -256 -117 -256 -81 0 -111 60
-111 222 0 89 4 122 19 154 30 67 78 89 134 63z"/>
<path d="M1920 3179 c-142 -38 -150 -42 -150 -79 0 -45 31 -56 103 -37 l57 15
0 -204 0 -204 -61 0 c-72 0 -99 -12 -99 -45 0 -51 16 -55 211 -55 166 0 180 1
199 20 24 24 24 29 4 58 -13 19 -24 22 -84 22 l-70 0 -2 269 -3 268 -105 -28z"/>
<path d="M2505 3195 c-51 -18 -99 -73 -125 -142 -16 -43 -20 -78 -20 -176 0
-115 2 -126 29 -182 17 -33 36 -67 43 -76 70 -86 230 -76 293 19 47 71 58 118
59 248 0 117 -1 123 -32 187 -37 74 -75 111 -130 127 -48 13 -68 12 -117 -5z
m130 -118 c42 -42 59 -120 52 -232 -5 -87 -31 -156 -66 -175 -28 -15 -83 -12
-108 5 -36 26 -58 100 -58 200 0 120 9 158 49 200 45 47 85 48 131 2z"/>
<path d="M3090 3177 c-63 -16 -121 -34 -127 -39 -18 -14 -16 -63 2 -78 15 -13
73 -6 128 15 16 7 17 -7 17 -199 l0 -206 -61 0 c-76 0 -99 -12 -99 -50 0 -19
7 -33 19 -40 12 -6 92 -10 191 -10 99 0 179 4 191 10 12 7 19 21 19 40 0 38
-23 50 -99 50 l-61 0 -2 268 -3 269 -115 -30z"/>
<path d="M3686 3195 c-53 -19 -89 -57 -122 -128 -26 -57 -28 -72 -28 -182 0
-132 11 -173 63 -249 37 -53 82 -76 151 -76 91 0 150 49 193 158 26 66 24 263
-4 337 -26 70 -81 129 -134 144 -51 14 -71 13 -119 -4z m112 -101 c47 -33 62
-84 62 -209 0 -122 -10 -165 -49 -204 -23 -23 -79 -28 -112 -11 -10 6 -29 30
-41 53 -20 37 -23 57 -23 162 0 94 4 127 17 152 37 66 98 91 146 57z"/>
<path d="M4270 3178 c-80 -20 -120 -35 -132 -49 -22 -26 -22 -31 0 -59 18 -22
22 -23 68 -11 27 6 57 14 67 17 16 5 17 -9 17 -200 l0 -206 -65 0 c-52 0 -69
-4 -85 -20 -11 -11 -20 -24 -20 -30 0 -5 9 -19 20 -30 18 -18 33 -20 196 -20
102 0 183 4 195 10 12 7 19 21 19 40 0 38 -23 50 -99 50 l-61 0 -2 268 -3 268
-115 -28z"/>
<path d="M4862 3198 c-43 -15 -106 -87 -127 -146 -22 -62 -31 -212 -16 -283
14 -65 64 -153 103 -183 34 -25 135 -34 178 -16 44 18 95 80 119 144 17 45 21
79 21 164 0 59 -5 123 -10 142 -15 56 -72 142 -107 162 -39 23 -117 31 -161
16z m117 -104 c44 -31 61 -88 61 -211 0 -122 -8 -154 -48 -195 -20 -22 -35
-28 -67 -28 -76 0 -115 74 -115 219 0 109 13 156 55 198 37 37 76 43 114 17z"/>
<path d="M5455 3200 c-44 -14 -94 -67 -123 -130 -21 -45 -27 -75 -30 -161 -5
-124 10 -190 60 -265 39 -58 85 -84 151 -84 88 0 146 42 189 135 30 68 38 258
14 333 -22 66 -67 133 -105 155 -37 21 -114 30 -156 17z m121 -115 c43 -43 54
-85 54 -200 0 -158 -35 -225 -116 -225 -35 0 -47 5 -68 30 -37 44 -48 100 -44
214 2 73 8 112 22 139 33 67 107 87 152 42z"/>
<path d="M6026 3175 c-65 -18 -122 -38 -127 -46 -14 -23 -10 -45 11 -64 19
-18 43 -16 133 11 16 5 17 -9 17 -200 l0 -206 -68 0 c-54 0 -72 -4 -85 -18
-23 -25 -21 -48 5 -66 18 -13 55 -16 193 -16 180 0 215 8 215 48 0 37 -18 47
-90 52 l-71 5 0 262 c0 144 -3 264 -7 266 -4 2 -60 -11 -126 -28z"/>
<path d="M6638 3201 c-52 -17 -87 -52 -120 -119 -30 -61 -33 -76 -37 -178 -4
-132 12 -200 62 -266 40 -53 88 -78 150 -78 89 0 147 43 190 140 28 64 36 245
13 323 -17 58 -63 127 -106 159 -29 21 -112 32 -152 19z m97 -101 c17 -7 34
-27 50 -62 21 -45 25 -68 25 -148 0 -111 -11 -158 -46 -200 -21 -25 -33 -30
-68 -30 -82 0 -116 67 -116 228 0 95 3 115 23 153 33 62 75 81 132 59z"/>
<path d="M7227 3200 c-49 -15 -92 -56 -122 -116 -26 -53 -30 -71 -33 -175 -5
-135 10 -201 58 -267 43 -59 84 -82 148 -82 96 0 141 32 189 135 26 56 28 68
28 190 -1 111 -4 137 -22 177 -54 118 -145 168 -246 138z m98 -102 c46 -21 68
-80 73 -193 5 -114 -7 -170 -44 -215 -21 -25 -33 -30 -68 -30 -82 0 -116 67
-116 228 0 92 3 114 23 152 31 64 77 83 132 58z"/>
<path d="M7807 3195 c-52 -18 -82 -48 -115 -114 -24 -50 -27 -69 -30 -181 -3
-110 -1 -132 18 -184 25 -66 76 -128 120 -146 17 -7 55 -11 89 -8 80 6 123 39
165 127 30 63 31 72 31 191 0 116 -2 129 -28 186 -57 122 -144 167 -250 129z
m106 -96 c44 -20 71 -84 75 -183 8 -167 -33 -256 -117 -256 -81 0 -111 60
-111 222 0 89 4 122 19 154 30 67 78 89 134 63z"/>
<path d="M8395 3195 c-51 -18 -99 -73 -126 -144 -18 -49 -20 -73 -17 -186 3
-117 6 -135 30 -181 30 -56 85 -110 124 -120 49 -13 131 1 166 28 107 82 142
334 68 485 -35 70 -74 108 -128 123 -48 13 -68 12 -117 -5z m124 -111 c85 -71
79 -367 -8 -414 -33 -17 -89 -12 -112 11 -39 39 -49 82 -49 204 0 96 3 123 20
155 37 73 95 90 149 44z"/>
<path d="M8990 3179 c-141 -38 -150 -42 -150 -78 0 -52 50 -61 144 -25 14 6
16 -14 16 -200 l0 -206 -61 0 c-76 0 -99 -12 -99 -50 0 -19 7 -33 19 -40 12
-6 93 -10 195 -10 163 0 178 2 196 20 11 11 20 25 20 30 0 6 -9 19 -20 30 -16
16 -33 20 -85 20 l-65 0 -2 269 -3 268 -105 -28z"/>
<path d="M9577 3195 c-54 -19 -85 -50 -118 -120 -27 -56 -29 -68 -29 -186 0
-139 10 -181 59 -253 37 -53 82 -76 151 -76 91 0 158 56 196 162 23 66 19 264
-7 333 -26 70 -81 129 -134 144 -51 14 -71 13 -118 -4z m111 -101 c47 -33 65
-90 66 -204 1 -114 -11 -163 -49 -204 -26 -28 -79 -35 -116 -16 -58 32 -89
216 -55 332 26 91 96 133 154 92z"/>
<path d="M10160 3178 c-120 -30 -153 -50 -143 -88 12 -44 56 -48 151 -13 9 4
12 -40 12 -201 l0 -206 -61 0 c-76 0 -99 -12 -99 -50 0 -19 7 -33 19 -40 12
-6 92 -10 191 -10 99 0 179 4 191 10 12 7 19 21 19 40 0 38 -23 50 -99 50
l-61 0 -2 268 -3 268 -115 -28z"/>
<path d="M10750 3178 c-80 -20 -120 -35 -132 -49 -22 -26 -22 -31 0 -59 18
-22 22 -23 68 -11 27 6 57 14 67 17 16 5 17 -9 17 -200 l0 -206 -65 0 c-52 0
-69 -4 -85 -20 -11 -11 -20 -24 -20 -30 0 -5 9 -19 20 -30 18 -18 33 -20 196
-20 102 0 183 4 195 10 12 7 19 21 19 40 0 38 -23 50 -99 50 l-61 0 -2 268 -3
268 -115 -28z"/>
<path d="M11916 3175 c-65 -18 -122 -38 -127 -46 -14 -23 -10 -45 11 -64 19
-18 43 -16 133 11 16 5 17 -9 17 -200 l0 -206 -68 0 c-54 0 -72 -4 -85 -18
-24 -26 -21 -49 7 -67 35 -23 382 -18 396 5 31 49 -2 80 -86 80 l-64 0 0 264
c0 146 -3 267 -7 269 -5 2 -61 -11 -127 -28z"/>
<path d="M12506 3175 c-65 -18 -122 -38 -127 -46 -14 -23 -10 -45 11 -64 19
-18 43 -16 133 11 16 5 17 -9 17 -200 l0 -206 -68 0 c-54 0 -72 -4 -85 -18
-23 -25 -21 -48 5 -66 18 -13 55 -16 193 -16 180 0 215 8 215 48 0 37 -18 47
-92 52 l-73 5 -2 264 c-1 145 -4 265 -5 266 -2 0 -56 -13 -122 -30z"/>
<path d="M11320 3173 c-127 -33 -151 -55 -112 -103 18 -22 22 -23 68 -11 27 6
57 14 67 17 16 5 17 -9 17 -200 l0 -206 -69 0 c-61 0 -72 -3 -85 -22 -20 -29
-20 -34 4 -58 19 -19 33 -20 199 -20 195 0 211 4 211 55 0 33 -27 45 -99 45
l-61 0 0 265 0 265 -22 -1 c-13 0 -66 -12 -118 -26z"/>
<path d="M750 1918 c-55 -16 -84 -42 -121 -110 -32 -59 -34 -70 -37 -179 -5
-135 10 -201 58 -267 44 -62 83 -82 155 -82 69 0 108 19 150 74 83 108 88 353
10 475 -30 48 -56 70 -102 87 -44 15 -65 16 -113 2z m93 -99 c47 -21 71 -83
75 -194 5 -113 -7 -170 -43 -213 -51 -60 -127 -46 -164 30 -18 37 -21 62 -21
158 0 95 3 121 21 157 30 63 80 86 132 62z"/>
<path d="M1343 1920 c-51 -12 -96 -53 -128 -116 -29 -57 -30 -63 -30 -204 0
-138 1 -147 27 -195 42 -79 87 -117 147 -123 110 -10 168 24 217 130 27 59 29
71 29 188 0 117 -2 129 -29 188 -33 71 -78 116 -133 131 -43 12 -54 12 -100 1z
m112 -123 c42 -42 55 -90 55 -197 0 -100 -12 -149 -45 -189 -51 -59 -127 -45
-164 31 -18 37 -21 62 -21 159 0 99 3 121 23 159 38 76 98 91 152 37z"/>
<path d="M2525 1921 c-69 -17 -112 -62 -146 -151 -24 -64 -27 -264 -4 -329 22
-63 70 -126 111 -146 54 -26 151 -18 196 17 80 61 122 213 100 368 -16 109
-61 194 -120 224 -36 18 -100 26 -137 17z m111 -126 c23 -25 36 -51 45 -92 17
-82 7 -208 -20 -262 -45 -87 -136 -87 -183 1 -19 37 -22 58 -23 158 0 104 2
119 25 160 44 78 103 91 156 35z"/>
<path d="M3686 1916 c-21 -8 -51 -26 -66 -41 -100 -95 -119 -360 -37 -496 45
-73 74 -92 151 -97 81 -5 126 15 167 74 48 71 59 114 59 244 0 77 -5 132 -15
159 -20 57 -71 128 -103 145 -43 22 -112 28 -156 12z m122 -109 c37 -30 52
-89 52 -207 0 -140 -18 -192 -75 -216 -93 -38 -155 48 -155 217 0 119 32 200
90 222 21 8 70 -1 88 -16z"/>
<path d="M4865 1915 c-50 -18 -108 -82 -130 -143 -22 -62 -31 -212 -16 -283
15 -70 65 -156 110 -186 46 -31 141 -32 191 -2 41 25 52 38 88 104 26 48 27
56 27 195 0 139 -1 147 -27 195 -33 61 -55 88 -88 108 -38 23 -109 29 -155 12z
m122 -107 c38 -31 53 -89 53 -207 0 -97 -3 -122 -21 -159 -37 -76 -113 -90
-164 -31 -33 40 -45 89 -45 189 0 108 14 156 56 198 30 30 39 34 70 29 20 -3
43 -12 51 -19z"/>
<path d="M6050 1918 c-47 -13 -104 -70 -132 -132 -20 -45 -23 -67 -23 -181 0
-141 11 -186 62 -253 39 -52 80 -72 146 -72 90 0 145 39 189 135 20 44 23 65
23 185 0 117 -3 141 -21 181 -33 72 -87 125 -139 138 -51 13 -58 13 -105 -1z
m99 -103 c47 -24 65 -76 69 -199 3 -82 0 -118 -12 -151 -46 -120 -156 -120
-202 0 -23 60 -17 244 10 298 30 60 81 80 135 52z"/>
<path d="M7230 1918 c-55 -16 -84 -42 -121 -110 -32 -59 -34 -70 -37 -179 -5
-135 10 -201 58 -267 44 -62 83 -82 155 -82 69 0 108 19 150 74 83 108 88 353
10 475 -30 48 -56 70 -102 87 -44 15 -65 16 -113 2z m93 -99 c47 -21 71 -83
75 -194 5 -113 -7 -170 -43 -213 -51 -60 -127 -46 -164 30 -18 37 -21 62 -21
158 0 95 3 121 21 157 30 63 80 86 132 62z"/>
<path d="M8415 1921 c-49 -12 -74 -30 -105 -72 -51 -70 -62 -124 -58 -267 3
-122 5 -129 37 -190 48 -89 77 -107 172 -107 67 0 80 3 112 28 22 16 49 53 69
94 32 66 33 71 33 193 0 135 -13 181 -71 257 -41 54 -120 81 -189 64z m104
-117 c40 -33 61 -105 61 -203 0 -169 -63 -255 -158 -215 -54 22 -72 75 -72
219 0 106 3 125 23 160 38 68 94 83 146 39z"/>
<path d="M9615 1925 c-5 -2 -22 -6 -37 -9 -40 -9 -86 -52 -116 -110 -26 -49
-27 -57 -27 -201 0 -144 1 -152 28 -208 16 -32 44 -69 64 -85 32 -24 45 -27
113 -27 68 0 81 3 113 27 20 16 48 53 64 85 25 53 28 69 31 186 3 95 0 139
-11 172 -21 59 -72 132 -105 149 -28 14 -100 27 -117 21z m82 -117 c8 -6 24
-30 36 -52 18 -35 21 -58 21 -156 0 -100 -3 -121 -23 -158 -14 -29 -33 -48
-55 -57 -88 -37 -146 34 -154 191 -7 134 24 223 88 247 20 8 70 0 87 -15z"/>
<path d="M10755 1915 c-50 -18 -108 -82 -130 -143 -22 -62 -31 -212 -16 -283
15 -70 65 -156 110 -186 26 -18 48 -23 94 -23 86 0 133 30 178 112 l34 63 0
145 0 145 -35 64 c-21 39 -48 72 -70 86 -46 31 -114 39 -165 20z m122 -107
c38 -31 53 -89 53 -207 0 -138 -20 -194 -77 -217 -92 -39 -153 47 -153 215 0
109 13 156 56 199 30 30 39 34 70 29 20 -3 43 -12 51 -19z"/>
<path d="M11936 1915 c-52 -18 -100 -67 -128 -129 -20 -45 -23 -66 -23 -186 0
-129 1 -138 28 -190 51 -100 94 -130 182 -130 88 0 143 40 187 135 20 44 23
65 23 185 0 120 -3 141 -23 186 -29 65 -85 119 -137 133 -50 14 -61 13 -109
-4z m103 -100 c47 -24 65 -76 69 -199 4 -121 -9 -175 -54 -216 -31 -30 -84
-32 -115 -4 -43 38 -59 91 -59 204 0 118 17 170 65 208 32 26 55 27 94 7z"/>
<path d="M12527 1917 c-51 -16 -95 -61 -126 -127 -21 -46 -26 -73 -29 -166 -5
-130 10 -196 58 -262 44 -62 83 -82 155 -82 72 0 111 20 155 82 48 66 63 132
58 262 -3 85 -9 122 -25 157 -32 71 -86 125 -138 138 -52 13 -59 13 -108 -2z
m102 -102 c18 -9 36 -32 50 -64 29 -67 30 -235 2 -296 -51 -111 -152 -106
-197 11 -25 66 -17 256 13 305 35 56 80 71 132 44z"/>
<path d="M121 1890 c-57 -16 -108 -35 -113 -42 -12 -20 -9 -45 8 -62 19 -20
38 -20 97 -2 25 7 48 11 51 8 4 -3 6 -95 6 -204 l0 -198 -63 0 c-93 0 -136
-41 -89 -83 27 -25 372 -25 396 -1 44 44 1 84 -91 84 l-63 0 0 265 c0 246 -1
265 -17 264 -10 0 -65 -14 -122 -29z"/>
<path d="M1895 1892 c-120 -33 -125 -36 -125 -71 0 -48 21 -57 96 -39 l64 15
0 -203 0 -204 -64 0 c-45 0 -69 -5 -80 -16 -22 -21 -20 -61 3 -74 12 -6 95
-10 200 -10 175 0 180 1 195 22 20 29 20 34 -4 58 -16 16 -33 20 -85 20 l-65
0 0 265 c0 246 -1 265 -17 264 -10 0 -63 -13 -118 -27z"/>
<path d="M3075 1892 c-120 -33 -125 -36 -125 -71 0 -48 21 -57 96 -39 l64 15
0 -203 0 -204 -61 0 c-76 0 -99 -12 -99 -50 0 -19 7 -33 19 -40 12 -6 92 -10
191 -10 99 0 179 4 191 10 12 7 19 21 19 40 0 38 -23 50 -99 50 l-61 0 0 265
c0 246 -1 265 -17 264 -10 0 -63 -13 -118 -27z"/>
<path d="M4246 1890 c-89 -25 -126 -46 -126 -71 0 -4 8 -17 19 -30 19 -23 19
-23 85 -8 l66 16 0 -203 0 -204 -65 0 c-52 0 -69 -4 -85 -20 -11 -11 -20 -24
-20 -30 0 -5 9 -19 20 -30 18 -18 33 -20 196 -20 102 0 183 4 195 10 12 7 19
21 19 40 0 38 -23 50 -99 50 l-61 0 0 265 0 265 -22 -1 c-13 -1 -68 -14 -122
-29z"/>
<path d="M5429 1892 c-53 -15 -103 -33 -113 -41 -22 -18 -20 -44 4 -66 18 -16
26 -17 68 -7 26 6 55 14 65 17 16 7 17 -7 17 -199 l0 -206 -63 0 c-93 0 -136
-41 -89 -83 27 -25 372 -25 396 -1 9 8 16 23 16 32 0 37 -18 46 -89 50 l-71 4
0 264 0 264 -22 -1 c-13 -1 -66 -13 -119 -27z"/>
<path d="M6601 1890 c-57 -16 -108 -34 -112 -42 -13 -20 -11 -45 7 -62 19 -20
38 -20 97 -2 25 7 48 11 51 8 4 -3 6 -95 6 -204 l0 -198 -63 0 c-92 0 -135
-40 -91 -84 23 -24 375 -24 398 0 44 44 1 84 -91 84 l-63 0 0 265 c0 246 -1
265 -17 264 -10 0 -65 -13 -122 -29z"/>
<path d="M7782 1891 c-56 -15 -107 -32 -113 -38 -15 -15 -7 -64 13 -77 13 -8
33 -6 78 6 l60 16 0 -203 0 -203 -71 -4 c-71 -4 -89 -13 -89 -50 0 -9 7 -24
16 -32 13 -13 45 -16 198 -16 164 0 185 2 199 18 22 24 21 38 -3 62 -16 16
-33 20 -85 20 l-65 0 0 265 c0 246 -1 265 -17 264 -10 0 -64 -13 -121 -28z"/>
<path d="M8965 1892 c-120 -33 -125 -36 -125 -71 0 -48 21 -57 96 -39 l64 15
0 -203 0 -204 -61 0 c-76 0 -99 -12 -99 -50 0 -19 7 -33 19 -40 12 -6 93 -10
195 -10 163 0 178 2 196 20 11 11 20 25 20 30 0 6 -9 19 -20 30 -16 16 -33 20
-85 20 l-65 0 0 265 c0 246 -1 265 -17 264 -10 0 -63 -13 -118 -27z"/>
<path d="M10141 1891 c-106 -29 -133 -46 -124 -81 10 -39 29 -45 99 -28 l64
15 0 -203 0 -204 -61 0 c-76 0 -99 -12 -99 -50 0 -19 7 -33 19 -40 12 -6 92
-10 191 -10 99 0 179 4 191 10 12 7 19 21 19 40 0 38 -23 50 -99 50 l-61 0 0
265 c0 246 -1 265 -17 264 -10 0 -65 -13 -122 -28z"/>
<path d="M11317 1890 c-115 -32 -136 -47 -119 -85 16 -36 34 -40 102 -22 l60
15 0 -204 0 -204 -65 0 c-52 0 -69 -4 -85 -20 -24 -24 -24 -29 -4 -58 15 -21
20 -22 195 -22 105 0 188 4 200 10 23 13 25 53 3 74 -11 11 -35 16 -80 16
l-64 0 0 265 0 265 -22 -1 c-13 -1 -67 -14 -121 -29z"/>
<path d="M135 618 c-60 -17 -116 -35 -122 -40 -21 -17 -15 -56 10 -72 20 -14
29 -14 77 -1 30 8 58 15 63 15 4 0 6 -91 5 -202 l-3 -203 -73 -5 c-76 -5 -95
-16 -90 -55 5 -37 44 -45 213 -45 169 0 208 8 213 45 5 39 -14 50 -90 55 l-73
5 -3 268 c-1 147 -6 267 -10 266 -4 -1 -56 -14 -117 -31z"/>
<path d="M725 618 c-60 -17 -116 -35 -122 -40 -21 -17 -15 -56 10 -72 20 -14
29 -14 77 -1 30 8 59 15 63 15 4 0 7 -91 5 -202 l-3 -203 -70 -3 c-78 -3 -97
-14 -93 -51 5 -43 37 -51 213 -51 169 0 208 8 213 45 5 39 -14 50 -90 55 l-73
5 -3 268 c-1 147 -6 267 -10 266 -4 -1 -56 -14 -117 -31z"/>
<path d="M1315 618 c-60 -16 -116 -35 -122 -40 -19 -15 -16 -52 6 -72 19 -17
32 -16 124 10 16 5 17 -9 17 -200 l0 -206 -69 0 c-75 0 -95 -12 -89 -52 6 -42
39 -49 226 -46 159 3 175 5 188 22 35 49 4 76 -87 76 l-69 0 0 270 c0 149 -3
270 -7 269 -5 0 -57 -14 -118 -31z"/>
<path d="M1905 619 c-60 -17 -115 -35 -122 -41 -19 -15 -16 -52 6 -72 19 -17
32 -16 124 10 16 5 17 -9 17 -200 l0 -206 -69 0 c-75 0 -95 -12 -89 -52 5 -39
41 -48 199 -48 176 0 207 5 221 36 9 19 8 28 -7 44 -15 16 -31 20 -87 20 l-68
0 0 270 c0 149 -3 270 -7 269 -5 0 -57 -14 -118 -30z"/>
<path d="M2491 617 c-120 -34 -138 -47 -128 -89 9 -35 27 -40 92 -23 31 8 58
15 60 15 3 0 5 -92 5 -205 l0 -205 -69 0 c-75 0 -95 -12 -89 -52 5 -39 41 -48
199 -48 81 0 161 3 178 6 43 9 58 37 36 70 -14 22 -22 24 -85 24 l-70 0 0 270
c0 149 -3 270 -7 269 -5 0 -59 -15 -122 -32z"/>
<path d="M3084 636 c-42 -18 -96 -84 -117 -143 -13 -36 -17 -80 -17 -173 0
-117 2 -129 29 -185 45 -95 99 -135 181 -135 82 0 136 40 181 135 27 57 29 67
29 190 0 123 -2 133 -29 190 -31 65 -70 108 -114 124 -38 15 -105 13 -143 -3z
m139 -112 c39 -39 52 -88 52 -199 0 -116 -14 -164 -56 -200 -60 -50 -131 -22
-161 63 -20 57 -17 249 5 289 42 77 110 97 160 47z"/>
<path d="M3663 630 c-45 -23 -90 -85 -114 -155 -9 -25 -14 -83 -14 -155 1
-104 4 -121 29 -175 46 -101 102 -145 185 -145 79 0 134 38 179 125 23 45 27
64 30 175 4 144 -4 187 -51 256 -46 68 -76 87 -144 91 -45 3 -68 -1 -100 -17z
m149 -107 c40 -42 48 -74 48 -199 0 -127 -11 -168 -55 -202 -55 -44 -111 -25
-152 50 -26 47 -26 258 0 305 42 78 110 98 159 46z"/>
<path d="M4270 620 c-130 -34 -138 -37 -145 -61 -7 -21 8 -54 29 -62 8 -3 38
1 68 9 29 7 56 14 61 14 4 0 7 -92 7 -205 l0 -205 -69 0 c-60 0 -72 -3 -85
-21 -19 -27 -7 -61 25 -70 13 -4 94 -7 179 -8 167 -1 203 7 208 47 6 40 -14
52 -89 52 l-69 0 0 270 c0 149 -3 270 -7 269 -5 0 -55 -13 -113 -29z"/>
<path d="M4860 620 c-130 -34 -138 -37 -145 -61 -7 -21 8 -54 29 -62 8 -3 38
1 68 9 29 7 56 14 61 14 4 0 7 -92 7 -205 l0 -205 -68 0 c-56 0 -72 -4 -87
-20 -15 -16 -16 -25 -7 -44 14 -31 45 -36 221 -36 158 0 194 9 199 48 6 40
-14 52 -89 52 l-69 0 0 270 c0 149 -3 270 -7 269 -5 0 -55 -13 -113 -29z"/>
<path d="M5437 618 c-123 -32 -145 -47 -132 -88 11 -34 37 -40 96 -25 30 8 57
15 62 15 4 0 7 -92 7 -205 l0 -205 -69 0 c-91 0 -122 -27 -87 -76 13 -17 29
-19 188 -22 187 -3 220 4 226 46 6 40 -14 52 -89 52 l-69 0 0 270 c0 149 -3
270 -7 269 -5 0 -61 -15 -126 -31z"/>
<path d="M6030 618 c-63 -16 -120 -34 -127 -40 -21 -17 -15 -56 10 -72 20 -14
29 -14 77 -1 30 8 58 15 63 15 4 0 6 -91 5 -202 l-3 -203 -73 -5 c-89 -6 -112
-29 -78 -76 13 -17 29 -19 188 -22 190 -3 221 4 226 49 4 37 -15 48 -91 51
l-68 3 0 262 c0 144 -3 264 -7 266 -4 2 -59 -9 -122 -25z"/>
<path d="M6615 618 c-60 -17 -116 -35 -122 -40 -21 -17 -15 -56 10 -72 20 -14
29 -14 77 -1 30 8 58 15 63 15 4 0 6 -91 5 -202 l-3 -203 -73 -5 c-76 -5 -95
-16 -90 -55 5 -37 44 -45 213 -45 169 0 208 8 213 45 5 39 -14 50 -90 55 l-73
5 -3 268 c-1 147 -6 267 -10 266 -4 -1 -56 -14 -117 -31z"/>
<path d="M7205 618 c-60 -16 -116 -35 -122 -40 -21 -17 -15 -56 10 -72 20 -14
29 -14 77 -1 30 8 55 13 57 12 1 -2 3 -93 3 -202 l2 -200 -68 -3 c-77 -3 -96
-14 -92 -51 5 -45 36 -52 226 -49 159 3 175 5 188 22 34 47 11 70 -78 76 l-73
5 -3 268 c-1 147 -6 267 -10 266 -4 0 -56 -14 -117 -31z"/>
<path d="M7795 636 c-44 -19 -90 -76 -114 -141 -26 -70 -29 -243 -6 -323 19
-63 69 -131 115 -155 51 -26 136 -19 188 16 64 42 102 130 109 248 7 121 -8
199 -51 269 -55 89 -154 124 -241 86z m126 -96 c10 -6 29 -30 41 -53 20 -37
23 -57 23 -162 0 -105 -3 -125 -23 -162 -25 -47 -47 -63 -89 -63 -40 0 -72 25
-94 74 -28 61 -27 251 1 306 32 64 89 87 141 60z"/>
<path d="M8385 619 c-60 -17 -115 -35 -122 -41 -19 -16 -16 -52 6 -72 18 -17
23 -17 74 -2 30 9 58 16 61 16 3 0 6 -92 6 -205 l0 -205 -69 0 c-75 0 -95 -12
-89 -52 5 -39 41 -48 199 -48 176 0 207 5 221 36 9 19 8 28 -7 44 -15 16 -31
20 -87 20 l-68 0 0 270 c0 149 -3 270 -7 269 -5 0 -57 -14 -118 -30z"/>
<path d="M8971 617 c-120 -34 -138 -47 -128 -89 9 -35 27 -40 92 -23 31 8 58
15 60 15 3 0 5 -92 5 -205 l0 -205 -69 0 c-75 0 -95 -12 -89 -52 5 -40 41 -48
208 -47 85 1 166 4 179 8 32 9 44 43 25 70 -13 18 -25 21 -85 21 l-69 0 0 270
c0 149 -3 270 -7 269 -5 0 -59 -15 -122 -32z"/>
<path d="M9564 636 c-41 -18 -100 -89 -118 -144 -11 -32 -16 -84 -16 -171 0
-118 2 -130 29 -186 45 -95 99 -135 181 -135 78 0 132 38 178 125 26 48 27 57
27 200 0 143 -1 152 -27 200 -30 57 -71 99 -111 114 -38 15 -105 13 -143 -3z
m139 -112 c39 -38 51 -88 51 -199 0 -116 -13 -164 -55 -200 -66 -54 -136 -19
-165 83 -21 70 -15 221 10 269 39 77 109 97 159 47z"/>
<path d="M10143 629 c-86 -42 -126 -136 -127 -299 -1 -135 15 -194 71 -260 42
-49 85 -70 142 -70 79 0 133 38 179 125 24 45 27 63 30 180 3 113 1 137 -17
185 -52 140 -164 196 -278 139z m149 -106 c15 -16 32 -41 37 -56 16 -42 14
-251 -3 -291 -26 -63 -95 -94 -147 -66 -10 6 -29 30 -41 53 -20 37 -23 57 -23
162 0 105 3 125 22 162 27 50 46 62 94 63 26 0 42 -7 61 -27z"/>
<path d="M10750 620 c-130 -34 -138 -37 -145 -61 -7 -21 8 -54 29 -62 8 -3 38
1 68 9 29 7 56 14 61 14 4 0 7 -92 7 -205 l0 -205 -70 0 c-63 0 -71 -2 -85
-24 -22 -33 -7 -61 36 -70 17 -3 97 -6 178 -6 158 0 194 9 199 48 6 40 -14 52
-89 52 l-69 0 0 270 c0 149 -3 270 -7 269 -5 0 -55 -13 -113 -29z"/>
<path d="M11320 628 c-55 -28 -104 -104 -121 -187 -17 -82 -7 -235 19 -293 31
-71 68 -114 113 -132 119 -48 234 20 275 162 12 40 15 85 13 171 -4 108 -6
122 -35 176 -43 83 -89 118 -162 123 -45 3 -66 -2 -102 -20z m139 -94 c44 -31
61 -88 61 -209 0 -86 -5 -119 -19 -151 -36 -78 -110 -99 -160 -45 -37 40 -51
93 -51 196 0 103 14 156 51 196 31 34 80 39 118 13z"/>
<path d="M11913 631 c-83 -39 -133 -154 -133 -306 0 -199 83 -325 215 -325 90
0 158 58 196 166 18 50 20 77 17 179 -3 114 -5 123 -38 183 -45 84 -83 113
-157 118 -44 4 -68 0 -100 -15z m136 -97 c44 -31 61 -88 61 -209 0 -158 -35
-225 -118 -225 -41 0 -86 44 -102 98 -13 49 -13 207 1 256 23 82 100 120 158
80z"/>
<path d="M12505 631 c-49 -22 -66 -41 -101 -111 -24 -48 -28 -70 -32 -166 -5
-127 9 -190 58 -267 51 -80 148 -108 235 -68 51 23 67 42 102 116 23 51 28 76
31 166 5 122 -9 186 -58 262 -51 80 -148 108 -235 68z m145 -109 c37 -38 50
-88 50 -197 0 -109 -13 -159 -50 -197 -53 -53 -126 -32 -161 46 -14 32 -19 65
-19 151 0 86 5 119 19 151 35 78 108 99 161 46z"/>
</g>
</svg>
